<mxfile host="65bd71144e">
    <diagram id="krnHFKvP68x4r-ojkulM" name="Page-1">
        <mxGraphModel dx="938" dy="660" grid="1" gridSize="10" guides="1" tooltips="1" connect="1" arrows="1" fold="1" page="1" pageScale="1" pageWidth="850" pageHeight="1100" math="0" shadow="0">
            <root>
                <mxCell id="0"/>
                <mxCell id="1" parent="0"/>
                <mxCell id="2" value="15" style="html=1;" vertex="1" parent="1">
                    <mxGeometry x="520" y="280" width="110" height="50" as="geometry"/>
                </mxCell>
                <mxCell id="16" style="edgeStyle=none;html=1;entryX=0.5;entryY=0;entryDx=0;entryDy=0;" edge="1" parent="1" source="3" target="2">
                    <mxGeometry relative="1" as="geometry"/>
                </mxCell>
                <mxCell id="3" value="3" style="html=1;" vertex="1" parent="1">
                    <mxGeometry x="480" y="200" width="110" height="50" as="geometry"/>
                </mxCell>
                <mxCell id="4" value="1" style="html=1;" vertex="1" parent="1">
                    <mxGeometry x="360" y="200" width="110" height="50" as="geometry"/>
                </mxCell>
                <mxCell id="5" value="0,7" style="html=1;" vertex="1" parent="1">
                    <mxGeometry x="210" y="200" width="110" height="50" as="geometry"/>
                </mxCell>
                <mxCell id="6" value="-1" style="html=1;" vertex="1" parent="1">
                    <mxGeometry x="80" y="200" width="110" height="50" as="geometry"/>
                </mxCell>
                <mxCell id="14" style="edgeStyle=none;html=1;entryX=0.5;entryY=0;entryDx=0;entryDy=0;" edge="1" parent="1" source="7" target="4">
                    <mxGeometry relative="1" as="geometry"/>
                </mxCell>
                <mxCell id="15" style="edgeStyle=none;html=1;entryX=0.5;entryY=0;entryDx=0;entryDy=0;" edge="1" parent="1" source="7" target="3">
                    <mxGeometry relative="1" as="geometry"/>
                </mxCell>
                <mxCell id="7" value="2" style="html=1;" vertex="1" parent="1">
                    <mxGeometry x="420" y="120" width="110" height="50" as="geometry"/>
                </mxCell>
                <mxCell id="12" style="edgeStyle=none;html=1;entryX=0.5;entryY=0;entryDx=0;entryDy=0;" edge="1" parent="1" source="8" target="6">
                    <mxGeometry relative="1" as="geometry"/>
                </mxCell>
                <mxCell id="13" style="edgeStyle=none;html=1;entryX=0.5;entryY=0;entryDx=0;entryDy=0;" edge="1" parent="1" source="8" target="5">
                    <mxGeometry relative="1" as="geometry"/>
                </mxCell>
                <mxCell id="8" value="0" style="html=1;" vertex="1" parent="1">
                    <mxGeometry x="150" y="120" width="110" height="50" as="geometry"/>
                </mxCell>
                <mxCell id="10" style="edgeStyle=none;html=1;entryX=0.5;entryY=0;entryDx=0;entryDy=0;" edge="1" parent="1" source="9" target="7">
                    <mxGeometry relative="1" as="geometry"/>
                </mxCell>
                <mxCell id="11" style="edgeStyle=none;html=1;entryX=0.5;entryY=0;entryDx=0;entryDy=0;" edge="1" parent="1" source="9" target="8">
                    <mxGeometry relative="1" as="geometry"/>
                </mxCell>
                <mxCell id="9" value="1" style="html=1;" vertex="1" parent="1">
                    <mxGeometry x="280" y="40" width="110" height="50" as="geometry"/>
                </mxCell>
            </root>
        </mxGraphModel>
    </diagram>
</mxfile>